<svg xmlns="http://www.w3.org/2000/svg" xmlns:xlink="http://www.w3.org/1999/xlink" version="1.1" id="Layer_1" x="0px" y="0px" viewBox="0 0 315 315" style="enable-background:new 0 0 315 315;" xml:space="preserve" width="382"  height="382" >
      <g id="color_index_0" fill="#3fd9ff">
              <path d="M38.5555382,183.598938L0,294.1636353h89.4901962l38.555397-110.5646973&#9;&#9;c5.5798798-15.9914703,16.9843292-26.0988617,29.454483-26.0988617H68.0032806&#9;&#9;C55.5331383,157.5000763,44.1286774,167.6074677,38.5555382,183.598938z"/>
        <path d="M276.4446106,131.401062L315,20.8365192h-89.4900513l-38.555542,110.5645447&#9;&#9;c-5.5797272,15.9916077-16.9841919,26.0990143-29.4543304,26.0990143h89.4967804&#9;&#9;C259.4670105,157.5000763,270.87146,147.3926697,276.4446106,131.401062z"/>
        <path d="M131.401062,38.5555382L20.8365192,0v89.4901962l110.5645447,38.555397&#9;&#9;c15.9916077,5.5798798,26.0990143,16.9843292,26.0990143,29.454483V68.0032806&#9;&#9;C157.5000763,55.5331383,147.3926697,44.1286774,131.401062,38.5555382z"/>
        <path d="M157.5000763,157.5000763v89.4966431c0,12.4701385,10.1073914,23.874588,26.0988617,29.4478912L294.1636353,315&#9;&#9;v-89.4900513l-110.5646973-38.555542C167.6074677,181.3746796,157.5000763,169.9702148,157.5000763,157.5000763z"/>
          </g>
  </svg>