<svg width="382" height="382" viewBox="0 0 382 382" fill="none" xmlns="http://www.w3.org/2000/svg">
<g clip-path="url(#clip0_4488_1345)">
<path d="M46.7562 222.65L0 356.732H108.525L155.281 222.65C162.047 203.257 175.878 191 191 191H82.4675C67.345 191 53.5148 203.257 46.7562 222.65Z" fill="#4698E5"/>
<path d="M335.244 159.35L382 25.2686H273.475L226.719 159.35C219.953 178.743 206.123 191 191 191H299.533C314.655 191 328.485 178.743 335.244 159.35Z" fill="#4698E5"/>
<path d="M159.349 46.7562L25.2676 0V108.525L159.349 155.281C178.742 162.047 190.999 175.878 190.999 191V82.4675C190.999 67.345 178.742 53.5148 159.349 46.7562Z" fill="#564AFF"/>
<path d="M191 191V299.532C191 314.655 203.257 328.485 222.65 335.244L356.732 382V273.475L222.65 226.719C203.257 219.953 191 206.123 191 191Z" fill="#564AFF"/>
</g>
<defs>
<clipPath id="clip0_4488_1345">
<rect width="382" height="382" fill="white"/>
</clipPath>
</defs>
</svg>
